<?xml version="1.0" encoding="utf-8"?>
<!-- Generator: Adobe Illustrator 27.5.0, SVG Export Plug-In . SVG Version: 6.00 Build 0)  -->
<svg version="1.1" xmlns="http://www.w3.org/2000/svg" xmlns:xlink="http://www.w3.org/1999/xlink" x="0px" y="0px"
	 viewBox="0 0 750 500" style="enable-background:new 0 0 750 500;" xml:space="preserve">
<g id="BACKGROUND">
	<linearGradient id="SVGID_1_" gradientUnits="userSpaceOnUse" x1="665.6202" y1="510.9492" x2="92.6485" y2="-3.5246">
		<stop  offset="0" style="stop-color:#CFD0D2"/>
		<stop  offset="0.7635" style="stop-color:#FFFFFF"/>
	</linearGradient>
	<rect style="fill:url(#SVGID_1_);" width="750" height="500"/>
</g>
<g id="OBJECTS">
	<g>
		
			<linearGradient id="SVGID_00000111189203720637235390000016438795248159167414_" gradientUnits="userSpaceOnUse" x1="490.9317" y1="63.6233" x2="478.3878" y2="14.2595">
			<stop  offset="0" style="stop-color:#FFFFFF;stop-opacity:0"/>
			<stop  offset="0.9973" style="stop-color:#A5A7A9"/>
		</linearGradient>
		<polygon style="fill:url(#SVGID_00000111189203720637235390000016438795248159167414_);" points="268.15,114.05 710.36,0 
			520.54,0 		"/>
		
			<linearGradient id="SVGID_00000176012861303094359380000009752596047916633472_" gradientUnits="userSpaceOnUse" x1="239.1759" y1="321.9008" x2="395.7175" y2="379.7517">
			<stop  offset="0" style="stop-color:#FFFFFF;stop-opacity:0"/>
			<stop  offset="0.9973" style="stop-color:#BABCBE"/>
		</linearGradient>
		<polygon style="opacity:0.7;fill:url(#SVGID_00000176012861303094359380000009752596047916633472_);" points="345.382,185.14 
			399.221,392.136 112.503,451.098 		"/>
		
			<linearGradient id="SVGID_00000067949511196832995840000014336286035978004113_" gradientUnits="userSpaceOnUse" x1="271.1703" y1="519.8601" x2="178.3073" y2="430.9209">
			<stop  offset="0" style="stop-color:#CFD0D2"/>
			<stop  offset="1" style="stop-color:#E5E6E7"/>
		</linearGradient>
		<path style="fill:url(#SVGID_00000067949511196832995840000014336286035978004113_);" d="M348.18,500H99.64
			c1.22-67.6,56.4-122.01,124.28-122.01S346.96,432.4,348.18,500z"/>
		<g>
			
				<linearGradient id="SVGID_00000034785703953371937720000013997020366290028204_" gradientUnits="userSpaceOnUse" x1="140.4774" y1="151.3722" x2="204.1764" y2="151.3722">
				<stop  offset="0" style="stop-color:#E5E6E7"/>
				<stop  offset="1" style="stop-color:#CFD0D2"/>
			</linearGradient>
			<path style="fill:url(#SVGID_00000034785703953371937720000013997020366290028204_);" d="M140.477,183.222l63.699-63.699
				c-14.932,3.65-29.089,11.309-40.746,22.966C151.773,154.146,144.127,168.29,140.477,183.222z"/>
			
				<linearGradient id="SVGID_00000128446477367493606900000004933863652897911723_" gradientUnits="userSpaceOnUse" x1="137.9828" y1="167.1424" x2="238.2115" y2="167.1424">
				<stop  offset="0" style="stop-color:#E5E6E7"/>
				<stop  offset="1" style="stop-color:#CFD0D2"/>
			</linearGradient>
			<path style="fill:url(#SVGID_00000128446477367493606900000004933863652897911723_);" d="M139.007,217.257l99.205-99.205
				c-4.745-0.735-9.558-1.083-14.357-1.016l-85.863,85.863C137.924,207.699,138.272,212.511,139.007,217.257z"/>
			
				<linearGradient id="SVGID_00000167370002608177481830000009995600525583015050_" gradientUnits="userSpaceOnUse" x1="142.3088" y1="181.7041" x2="263.0093" y2="181.7041">
				<stop  offset="0" style="stop-color:#E5E6E7"/>
				<stop  offset="1" style="stop-color:#CFD0D2"/>
			</linearGradient>
			<path style="fill:url(#SVGID_00000167370002608177481830000009995600525583015050_);" d="M146.747,242.054l116.263-116.262
				c-3.556-1.738-7.219-3.208-10.935-4.438L142.309,231.119C143.539,234.836,145.009,238.499,146.747,242.054z"/>
			
				<linearGradient id="SVGID_00000154386399880650983900000018261805539410381957_" gradientUnits="userSpaceOnUse" x1="248.5185" y1="257.6085" x2="308.6082" y2="257.6085">
				<stop  offset="0" style="stop-color:#E5E6E7"/>
				<stop  offset="1" style="stop-color:#CFD0D2"/>
			</linearGradient>
			<path style="fill:url(#SVGID_00000154386399880650983900000018261805539410381957_);" d="M308.608,227.564l-60.09,60.09
				c13.876-3.904,26.963-11.296,37.872-22.204C297.312,254.527,304.718,241.426,308.608,227.564z"/>
			
				<linearGradient id="SVGID_00000120519918246886303680000012892848308571016073_" gradientUnits="userSpaceOnUse" x1="213.494" y1="241.7213" x2="311.8528" y2="241.7213">
				<stop  offset="0" style="stop-color:#E5E6E7"/>
				<stop  offset="1" style="stop-color:#CFD0D2"/>
			</linearGradient>
			<path style="fill:url(#SVGID_00000120519918246886303680000012892848308571016073_);" d="M213.494,290.14
				c4.852,0.655,9.772,0.896,14.678,0.695l83.617-83.617c0.187-4.893-0.04-9.826-0.695-14.678L213.494,290.14z"/>
			
				<linearGradient id="SVGID_00000154391344332240890650000014773142253014544807_" gradientUnits="userSpaceOnUse" x1="188.2684" y1="227.196" x2="308.0331" y2="227.196">
				<stop  offset="0" style="stop-color:#E5E6E7"/>
				<stop  offset="1" style="stop-color:#CFD0D2"/>
			</linearGradient>
			<path style="fill:url(#SVGID_00000154391344332240890650000014773142253014544807_);" d="M188.268,282.827
				c3.623,1.671,7.326,3.101,11.096,4.251l108.669-108.669c-1.15-3.77-2.58-7.473-4.251-11.096L188.268,282.827z"/>
			
				<linearGradient id="SVGID_00000047742444181162319370000018136006287292726928_" gradientUnits="userSpaceOnUse" x1="168.4568" y1="212.09" x2="297.6328" y2="212.09">
				<stop  offset="0" style="stop-color:#E5E6E7"/>
				<stop  offset="1" style="stop-color:#CFD0D2"/>
			</linearGradient>
			<path style="fill:url(#SVGID_00000047742444181162319370000018136006287292726928_);" d="M168.457,270.074
				c2.807,2.406,5.748,4.599,8.77,6.604l120.406-120.406c-2.005-3.021-4.198-5.962-6.604-8.769L168.457,270.074z"/>
			
				<linearGradient id="SVGID_00000012435679691007542630000001158511864047560342_" gradientUnits="userSpaceOnUse" x1="153.0703" y1="196.8371" x2="282.5133" y2="196.8371">
				<stop  offset="0" style="stop-color:#E5E6E7"/>
				<stop  offset="1" style="stop-color:#CFD0D2"/>
			</linearGradient>
			<path style="fill:url(#SVGID_00000012435679691007542630000001158511864047560342_);" d="M159.808,261.559l122.706-122.706
				c-2.754-2.46-5.641-4.706-8.636-6.738L153.07,252.923C155.102,255.917,157.348,258.805,159.808,261.559z"/>
		</g>
		
			<linearGradient id="SVGID_00000072966338554659187150000012832255813291318166_" gradientUnits="userSpaceOnUse" x1="717.1747" y1="248.1455" x2="433.175" y2="292.1455">
			<stop  offset="0" style="stop-color:#CFD0D2"/>
			<stop  offset="0.7955" style="stop-color:#FFFFFF"/>
		</linearGradient>
		<polygon style="fill:url(#SVGID_00000072966338554659187150000012832255813291318166_);" points="750,0 750,500 0,500 0,473.79 
			480.54,376.17 345.38,185.14 660.41,0 		"/>
		
			<linearGradient id="SVGID_00000146469827593237200940000003760628172005397915_" gradientUnits="userSpaceOnUse" x1="374.9432" y1="352.6172" x2="402.9431" y2="299.6172">
			<stop  offset="0" style="stop-color:#CFD0D2"/>
			<stop  offset="1" style="stop-color:#E5E6E7"/>
		</linearGradient>
		<polygon style="fill:url(#SVGID_00000146469827593237200940000003760628172005397915_);" points="345.382,185.14 480.54,376.17 
			399.221,392.136 		"/>
		
			<linearGradient id="SVGID_00000035489718520854317620000005462509871427873408_" gradientUnits="userSpaceOnUse" x1="75.8516" y1="259.4312" x2="307.8344" y2="-4.1232">
			<stop  offset="0" style="stop-color:#E5E6E7"/>
			<stop  offset="0.8981" style="stop-color:#FFFFFF"/>
		</linearGradient>
		<polygon style="fill:url(#SVGID_00000035489718520854317620000005462509871427873408_);" points="608.41,0 268.15,114.05 
			180.28,337.71 0,259.56 0,0 		"/>
		
			<linearGradient id="SVGID_00000092433383168717360100000013930388831714458030_" gradientUnits="userSpaceOnUse" x1="24.9177" y1="79.3124" x2="8.7365" y2="114.2639">
			<stop  offset="0.0027" style="stop-color:#919395"/>
			<stop  offset="1" style="stop-color:#FFFFFF;stop-opacity:0"/>
		</linearGradient>
		<polygon style="opacity:0.7;fill:url(#SVGID_00000092433383168717360100000013930388831714458030_);" points="62.68,130.88 
			0,99.14 0,0 		"/>
		
			<linearGradient id="SVGID_00000057131527427834074470000010496083958382310841_" gradientUnits="userSpaceOnUse" x1="94.4018" y1="288.2923" x2="71.7353" y2="343.6254">
			<stop  offset="0" style="stop-color:#CFD0D2"/>
			<stop  offset="0.7102" style="stop-color:#E5E6E7"/>
		</linearGradient>
		<polygon style="fill:url(#SVGID_00000057131527427834074470000010496083958382310841_);" points="180.28,337.71 0,305.833 
			0,259.682 		"/>
		
			<linearGradient id="SVGID_00000064344174060896055300000009631750122363037351_" gradientUnits="userSpaceOnUse" x1="511.3297" y1="297.7225" x2="564.3297" y2="215.7226">
			<stop  offset="0.1163" style="stop-color:#CFD0D2"/>
			<stop  offset="1" style="stop-color:#FFFFFF"/>
		</linearGradient>
		<circle style="fill:url(#SVGID_00000064344174060896055300000009631750122363037351_);" cx="539.921" cy="253.486" r="63.856"/>
		
			<linearGradient id="SVGID_00000107590639516407185380000002502202784422824857_" gradientUnits="userSpaceOnUse" x1="183.069" y1="149.1835" x2="133.2696" y2="188.3916">
			<stop  offset="0" style="stop-color:#FFFFFF"/>
			<stop  offset="0.8837" style="stop-color:#CFD0D2"/>
		</linearGradient>
		<circle style="fill:url(#SVGID_00000107590639516407185380000002502202784422824857_);" cx="160.259" cy="167.143" r="30.504"/>
		
			<linearGradient id="SVGID_00000063616807426739415860000018308800912627575426_" gradientUnits="userSpaceOnUse" x1="371.7355" y1="110.8065" x2="392.6066" y2="110.8065">
			<stop  offset="0" style="stop-color:#CFD0D2"/>
			<stop  offset="1" style="stop-color:#E5E6E7"/>
		</linearGradient>
		<circle style="fill:url(#SVGID_00000063616807426739415860000018308800912627575426_);" cx="387.919" cy="110.807" r="16.183"/>
		<g>
			<g>
				
					<linearGradient id="SVGID_00000132807384026418128150000010240451526691032495_" gradientUnits="userSpaceOnUse" x1="767.3518" y1="217.7091" x2="431.5631" y2="482.0826">
					<stop  offset="0" style="stop-color:#CFD0D2"/>
					<stop  offset="1" style="stop-color:#E5E6E7"/>
				</linearGradient>
				<polygon style="fill:url(#SVGID_00000132807384026418128150000010240451526691032495_);" points="750,195.67 750,204.15 
					454.15,500 445.67,500 				"/>
			</g>
			<g>
				
					<linearGradient id="SVGID_00000121237651637495789500000008679311378204244666_" gradientUnits="userSpaceOnUse" x1="765.898" y1="243.9924" x2="461.147" y2="483.9293">
					<stop  offset="0" style="stop-color:#CFD0D2"/>
					<stop  offset="1" style="stop-color:#E5E6E7"/>
				</linearGradient>
				<polygon style="fill:url(#SVGID_00000121237651637495789500000008679311378204244666_);" points="750,223.8 750,232.28 
					482.28,500 473.8,500 				"/>
			</g>
			<g>
				
					<linearGradient id="SVGID_00000009569960917454098050000009407380097152416947_" gradientUnits="userSpaceOnUse" x1="764.4435" y1="270.2852" x2="490.7415" y2="485.7765">
					<stop  offset="0" style="stop-color:#CFD0D2"/>
					<stop  offset="1" style="stop-color:#E5E6E7"/>
				</linearGradient>
				<polygon style="fill:url(#SVGID_00000009569960917454098050000009407380097152416947_);" points="750,251.94 750,260.42 
					510.42,500 501.94,500 				"/>
			</g>
			<g>
				
					<linearGradient id="SVGID_00000114781086362664550180000016741594167452212871_" gradientUnits="userSpaceOnUse" x1="762.992" y1="296.5615" x2="520.3168" y2="487.6248">
					<stop  offset="0" style="stop-color:#CFD0D2"/>
					<stop  offset="1" style="stop-color:#E5E6E7"/>
				</linearGradient>
				<polygon style="fill:url(#SVGID_00000114781086362664550180000016741594167452212871_);" points="750,280.06 750,288.55 
					538.55,500 530.06,500 				"/>
			</g>
			<g>
				
					<linearGradient id="SVGID_00000156567116560959171080000012761681708195209352_" gradientUnits="userSpaceOnUse" x1="761.5381" y1="322.8451" x2="549.9007" y2="489.4716">
					<stop  offset="0" style="stop-color:#CFD0D2"/>
					<stop  offset="1" style="stop-color:#E5E6E7"/>
				</linearGradient>
				<polygon style="fill:url(#SVGID_00000156567116560959171080000012761681708195209352_);" points="750,308.19 750,316.68 
					566.68,500 558.19,500 				"/>
			</g>
			<g>
				
					<linearGradient id="SVGID_00000013170832930448060710000002386233167273019299_" gradientUnits="userSpaceOnUse" x1="760.0818" y1="349.1352" x2="579.4933" y2="491.3164">
					<stop  offset="0" style="stop-color:#CFD0D2"/>
					<stop  offset="1" style="stop-color:#E5E6E7"/>
				</linearGradient>
				<polygon style="fill:url(#SVGID_00000013170832930448060710000002386233167273019299_);" points="750,336.33 750,344.81 
					594.81,500 586.33,500 				"/>
			</g>
			<g>
				
					<linearGradient id="SVGID_00000044140892742291828080000010606503217838736032_" gradientUnits="userSpaceOnUse" x1="758.6279" y1="375.4186" x2="609.0771" y2="493.1631">
					<stop  offset="0" style="stop-color:#CFD0D2"/>
					<stop  offset="1" style="stop-color:#E5E6E7"/>
				</linearGradient>
				<polygon style="fill:url(#SVGID_00000044140892742291828080000010606503217838736032_);" points="750,364.46 750,372.94 
					622.94,500 614.46,500 				"/>
			</g>
			<g>
				
					<linearGradient id="SVGID_00000028293385807957594990000006678537894142186687_" gradientUnits="userSpaceOnUse" x1="757.176" y1="401.7044" x2="638.6628" y2="495.0122">
					<stop  offset="0" style="stop-color:#CFD0D2"/>
					<stop  offset="1" style="stop-color:#E5E6E7"/>
				</linearGradient>
				<polygon style="fill:url(#SVGID_00000028293385807957594990000006678537894142186687_);" points="750,392.59 750,401.08 
					651.08,500 642.59,500 				"/>
			</g>
			<g>
				
					<linearGradient id="SVGID_00000056405286197270153930000017806809715246100924_" gradientUnits="userSpaceOnUse" x1="755.7202" y1="427.9853" x2="668.2451" y2="496.8563">
					<stop  offset="0" style="stop-color:#CFD0D2"/>
					<stop  offset="1" style="stop-color:#E5E6E7"/>
				</linearGradient>
				<polygon style="fill:url(#SVGID_00000056405286197270153930000017806809715246100924_);" points="750,420.72 750,429.2 
					679.2,500 670.72,500 				"/>
			</g>
			<g>
				
					<linearGradient id="SVGID_00000073708743751675591090000005717144437893643176_" gradientUnits="userSpaceOnUse" x1="754.2681" y1="454.271" x2="697.8307" y2="498.7053">
					<stop  offset="0" style="stop-color:#CFD0D2"/>
					<stop  offset="1" style="stop-color:#E5E6E7"/>
				</linearGradient>
				<polygon style="fill:url(#SVGID_00000073708743751675591090000005717144437893643176_);" points="750,448.85 750,457.34 
					707.34,500 698.85,500 				"/>
			</g>
			<g>
				
					<linearGradient id="SVGID_00000056399942236982473390000002776254891132926080_" gradientUnits="userSpaceOnUse" x1="752.8118" y1="480.5614" x2="727.4234" y2="500.5502">
					<stop  offset="0" style="stop-color:#CFD0D2"/>
					<stop  offset="1" style="stop-color:#E5E6E7"/>
				</linearGradient>
				<polygon style="fill:url(#SVGID_00000056399942236982473390000002776254891132926080_);" points="750,476.99 750,485.47 
					735.47,500 726.99,500 				"/>
			</g>
		</g>
		
			<linearGradient id="SVGID_00000011739274150862037710000013938656359620232094_" gradientUnits="userSpaceOnUse" x1="722.2944" y1="326.4193" x2="680.3022" y2="345.5081">
			<stop  offset="0.0027" style="stop-color:#919395"/>
			<stop  offset="1" style="stop-color:#FFFFFF;stop-opacity:0"/>
		</linearGradient>
		<polygon style="opacity:0.7;fill:url(#SVGID_00000011739274150862037710000013938656359620232094_);" points="750,446.932 
			691.27,428.14 632.54,268.087 714.54,196.837 		"/>
		
			<linearGradient id="SVGID_00000011022130927026523780000003923506934570400407_" gradientUnits="userSpaceOnUse" x1="776.6751" y1="190.3305" x2="726.675" y2="278.3305">
			<stop  offset="0" style="stop-color:#E5E6E7"/>
			<stop  offset="1" style="stop-color:#CFD0D2"/>
		</linearGradient>
		<polygon style="fill:url(#SVGID_00000011022130927026523780000003923506934570400407_);" points="750,27.625 656.099,218.86 
			750,446.932 		"/>
		
			<linearGradient id="SVGID_00000157302815948125384840000011810990355571664274_" gradientUnits="userSpaceOnUse" x1="107.4515" y1="57.4283" x2="62.9019" y2="62.1177">
			<stop  offset="0" style="stop-color:#CFD0D2"/>
			<stop  offset="1" style="stop-color:#E5E6E7"/>
		</linearGradient>
		<polygon style="fill:url(#SVGID_00000157302815948125384840000011810990355571664274_);" points="162.873,0 62.68,130.88 0,69.64 
			0,0 		"/>
		
			<linearGradient id="SVGID_00000124853549768543818040000013690924150484877451_" gradientUnits="userSpaceOnUse" x1="727.9759" y1="221.3349" x2="685.9134" y2="55.8078">
			<stop  offset="0" style="stop-color:#FFFFFF"/>
			<stop  offset="1" style="stop-color:#CFD0D2"/>
		</linearGradient>
		<polygon style="fill:url(#SVGID_00000124853549768543818040000013690924150484877451_);" points="656.099,218.86 750,107.473 
			750,27.625 		"/>
		
			<linearGradient id="SVGID_00000028299977457802863250000002645753636387273137_" gradientUnits="userSpaceOnUse" x1="42.9817" y1="56.2743" x2="7.8183" y2="83.9592">
			<stop  offset="0" style="stop-color:#FFFFFF"/>
			<stop  offset="0.8837" style="stop-color:#CFD0D2"/>
		</linearGradient>
		<polygon style="fill:url(#SVGID_00000028299977457802863250000002645753636387273137_);" points="62.68,130.88 0,0 0,69.64 		"/>
		<g>
			
				<linearGradient id="SVGID_00000062878143087727320940000002378207982963744130_" gradientUnits="userSpaceOnUse" x1="462.2186" y1="83.1022" x2="531.2185" y2="131.1021">
				<stop  offset="0" style="stop-color:#FFFFFF"/>
				<stop  offset="1" style="stop-color:#CFD0D2"/>
			</linearGradient>
			<polygon style="fill:url(#SVGID_00000062878143087727320940000002378207982963744130_);" points="470.003,72.402 463.985,149.21 
				565.095,89.789 			"/>
			
				<linearGradient id="SVGID_00000046312968686788796650000007999345728189529779_" gradientUnits="userSpaceOnUse" x1="486.5137" y1="95.4381" x2="443.3513" y2="129.4207">
				<stop  offset="0" style="stop-color:#FFFFFF"/>
				<stop  offset="0.8837" style="stop-color:#CFD0D2"/>
			</linearGradient>
			<polygon style="fill:url(#SVGID_00000046312968686788796650000007999345728189529779_);" points="470.003,72.402 
				452.613,135.797 463.985,149.21 			"/>
		</g>
		<g>
			
				<linearGradient id="SVGID_00000159472012428644360230000017794202167855462819_" gradientUnits="userSpaceOnUse" x1="83.1799" y1="392.3962" x2="64.18" y2="361.8962">
				<stop  offset="0" style="stop-color:#CFD0D2"/>
				<stop  offset="1" style="stop-color:#E5E6E7"/>
			</linearGradient>
			<polygon style="fill:url(#SVGID_00000159472012428644360230000017794202167855462819_);" points="53.474,405.746 
				119.425,363.513 18.425,375.513 			"/>
			
				<linearGradient id="SVGID_00000086649888569106920720000015611179517296002217_" gradientUnits="userSpaceOnUse" x1="119.4119" y1="366.5399" x2="55.7909" y2="416.63">
				<stop  offset="0" style="stop-color:#FFFFFF"/>
				<stop  offset="0.8837" style="stop-color:#CFD0D2"/>
			</linearGradient>
			<polygon style="fill:url(#SVGID_00000086649888569106920720000015611179517296002217_);" points="53.474,405.746 
				124.207,375.473 119.425,363.513 			"/>
		</g>
	</g>
</g>
</svg>
